<svg xmlns="http://www.w3.org/2000/svg" viewBox="0 0 4172.6 4309.2"><path d="M450.8 3397.4c75.4-216.8 234.5-354.7 234.5-354.7 56.5-49.6 119.8-88.1 190.2-115.4 61.5-23.9 124.7-39.4 189.4-52.3 61.5-12.2 123-25.9 183.7-42.8 62-17.3 123.5-35.8 184.3-56.3 20.6-7 40.6-16.2 60.5-25.5 15.8-7.4 26.9-5.2 36.2 10.5 66.7 111.7 133.9 223 200.8 334.5 51 85.2 101.8 170.5 152.6 255.8 5.2 8.8 9 18.4 14.1 27.4 2.4 4.2 6.3 7.9 11.8 6.4 4.6-1.3 5.2-5.9 5.7-10 8.7-57.5 28.4-112.6 36-170.4.2-2 .9-4 1.5-6 11.5-41.5 10.6-40.6-22-68.6-53.3-45.5-80.3-105.1-84.5-174.4-2.1-35.4 9.6-40.8 43.8-32.5 41.9 10.1 84.5 19.7 127.3 22.1 63.5 3.6 127.7 8 190.6-6.9 30.6-7.3 62.5-7 92.8-17.8 18.4-6.6 30.9 6.1 30.2 30-1.4 47.6-15.3 91.8-41.9 131.3-16.5 24.6-36.9 46.1-61.2 63.2-14.2 9.9-15.2 20.6-10.5 37.1 11.1 39.5 20.3 79.5 27.6 119.8 4.7 25.6 18.4 49 18 75.8-.1 3.2 2.5 6.6 6.7 6.6 6.6-.1 9-5.7 11.7-10.3 17.8-30.1 35.1-60.4 52.9-90.4 31-52.4 62.1-104.9 93.4-157.2 31.9-53.5 64.2-106.7 96.1-160.2 41.4-69.4 82.5-138.8 123.6-208.3 7.9-13.3 19.3-15.6 31.7-9.2 48.9 25.4 101.4 41.6 153.6 57.3 49.6 15 99.9 28 150.5 40.2 79.9 19.3 161.8 29.7 240.6 52.8 137.4 40.2 254.1 113.5 346.3 224.6 7.8 9.4 91.9 108.4 142.9 243.5 10.6 28.2 19.4 56.9 22.2 93.1 1.6 20.3 4.4 58-8.7 97.2-22 65.7-75.9 102.4-122.9 129.4-45.2 26.1-93.7 44.5-143.1 60.7-49.3 16.2-99.9 28.8-150.6 39.2-44.8 9.2-90.2 16.5-135.3 24.8-57.4 10.5-115.3 18.2-172.9 23.5-101.5 9.3-202.6 25.9-305.2 22.9-12.3-.3-1212-.7-1228.4-.2-92.2 3.1-182.8-16.5-274.5-19.7-33.2-1.1-64.7-11.5-97.6-13.9-64.3-4.8-127.5-17-190.5-29.9-35.5-7.3-70.9-15-106.2-23.4-27.9-6.7-56-13-83-22.6-37.2-13.3-74.5-26.4-110.3-43.6-48.1-23.2-126.2-66.4-155.9-149-14.4-40.1-13.4-78.7-13-86.3 1.2-29.3 7.8-52.7 14.4-71.9z"/><path d="M2306.8 480c54 13.3 127.4 29.7 212.2 77.7 66.1 37.4 126.3 82.4 181.2 134.3 53.4 50.5 99 108.1 138.9 170 46.5 72.4 81.6 149.7 107.3 232.1 38.9 124.5 52.4 251.6 47.3 381.3-.3 8.2-1.3 16.5-3.2 24.5-8.8 36.8 14.7 63.6 27.9 93.8 13.8 31.4 24.2 63.6 25.6 98.7 2.6 70.8-12.1 138.5-29.7 206.5-16.3 62.9-39.7 122.3-73.5 177.4-15.3 25-34.3 47.9-56 68.2-22.6 21.2-40.5 43-48.5 75.8-10.8 44.2-30.4 86.5-51.4 127.4-27.8 54.2-55.5 109.1-96.1 155-80 90.4-161.1 180.3-264.8 244.9-62.4 38.9-129.2 70.3-201.2 85.9-72.2 15.6-144.5 26.4-219.7 7.5-51-12.8-103.1-21-152.5-39.7-38.4-14.7-74.4-34.7-109-57.1-118.2-76.4-220.3-169.7-295.8-289.5-29.9-47.4-56.2-97-78-148.9-14.6-34.7-29.4-69.1-38.7-105.8-3.8-15-12.5-27.2-24.1-37.5-74.2-66.1-115.4-151.1-142.4-245-18.9-66.1-34.3-132.5-34.2-201.7.1-58.8 11.1-114.3 48-162 4-5.2 5.3-11.1 5.2-17.4-.6-35-2.2-70.1-1.1-104.9 1.9-65.6-2.2-131.4 10.8-196.8 11.4-57.2 22.9-114.2 42.5-169 17-47.6 36.9-94 60.9-138.9 30.9-57.9 66.8-112 109.4-161.3 61.6-71.3 130.2-134.7 210.7-185.1 49.1-30.7 99.7-57.7 154.1-76.3 33.2-11.4 58.3-16.7 89.1-23.3 66.1-14.2 135.7-29.2 224.8-29.6 99.9-1.1 174.7 16.8 224 28.8zm28 898.2c-3.9 5.4.3 9.2 2.5 13.2 39.4 74.3 78.9 148.6 118.5 222.7 4.3 7.9 10.2 15.9 4 24.7-6.8 9.8-17.2 6.7-26.4 4.4-15.2-3.9-30.1-9.7-45.5-12.8-45.1-9.3-88.1-25.1-130.5-41.9-55.1-21.8-108.7-47.3-161-75.7-71.8-38.9-139.8-83.2-205-132-57.1-42.7-111.9-88.4-164.7-136.4-10.9-9.9-22.3-11.3-36-9.3-44.9 6.7-81 30.6-111.1 61.8-52.6 54.6-80.9 123.4-99 195.7-9.6 38.3-17.9 77-21.6 116.9-5.5 58-16.5 115.3-11.8 174.1.9 10.8-1 21.9-2 32.8-.7 7-2.7 14.7-11.1 15.2-9.9.6-11.3-7.9-12.9-15.6-10.6-51-30.5-99.3-44.5-149.3-5.6-19.9-19.2-22.5-36.5-21.1-18.1 1.5-27.1 12.5-29.7 28.8-2.4 14.8-4.3 30.1-3.7 45 3.9 93.1 27.1 181.1 73 262.4 17.5 31 42.3 56 79.3 63.7 14.8 3.1 19.4 13.2 21.9 26.2 7.3 39.7 18 78.5 30.4 117.1 21.9 68.6 56.3 130.8 95.1 190.3 52.3 80.3 116.2 150.4 197.2 203.9 45.4 30 93.1 54.6 143.9 73.5 64.8 24.1 132.2 19.8 199.4 18.1 10.8-.2 21.7-3.4 32.2-6.2 52.8-14.5 104-33.2 151.1-61.9 60.5-37 117.5-78.6 163.7-132.8 27-31.7 51.2-66 74.8-100.5 41.6-60.7 72.1-126.9 96.6-196.4 12.5-35.2 15.1-72.5 27.1-107.6 4.4-12.9 10.8-20.8 24.6-24.4 27.5-7.3 48.4-24.3 64.6-47.8 25.8-37.7 43.6-78.5 55.9-122.6 16.4-58.9 32-117.6 28.9-179.5-1.7-33-14.3-46.9-46.7-49.2-17.9-1.2-24.2-10.4-22-27.2.9-6.8 2.1-13.5 2.6-20.4.3-4.1.1-8.9-5-10-3.7-.7-5.9 2.8-7.7 5.7-6.1 10-11.6 20.3-18.2 29.9-10.9 15.5-23.7 26.4-45 19.2-64.1-21.4-123.5-52.1-178.7-90.5-70.4-49.1-136.8-103.2-196-165.7-4.1-4-7.4-10.5-15-8.5z"/></svg>